<svg height="512" viewBox="0 0 64 64" width="512" xmlns="http://www.w3.org/2000/svg"><g id="Glyph"><circle cx="36" cy="49" r="1"/><path d="m32.4 27.8c-1.553-1.165-2.282-2.4-2.166-3.685a4.214 4.214 0 0 1 2.319-3.01c.356-.185.914-.635.967-.953.024-.147-.119-.331-.242-.46-.439-.459-1.254-.751-3.67 1.1-.016.013-.033.025-.05.037a4.751 4.751 0 0 0 -1.946 3.258c-.09 1.614.932 3.348 3.039 5.153 5 4.286 2.492 8.245.993 10.611-.889 1.4-1.27 2.1-.931 2.447.5.507.8.446.919.423.362-.073 1.681-.657 3.438-5.091 1.7-4.285.93-7.13-2.67-9.83z"/><path d="m21.466 27.8c-1.552-1.165-2.281-2.4-2.166-3.685a4.219 4.219 0 0 1 2.319-3.01c.356-.185.915-.635.967-.953.024-.147-.118-.331-.242-.46-.439-.459-1.254-.751-3.669 1.1-.017.013-.033.025-.051.037a4.75 4.75 0 0 0 -1.946 3.258c-.09 1.614.933 3.348 3.039 5.153 5 4.286 2.492 8.245.993 10.611-.888 1.4-1.27 2.1-.931 2.447.5.509.8.446.919.423.363-.073 1.681-.657 3.439-5.091 1.698-4.285.925-7.13-2.671-9.83z"/><circle cx="14" cy="37" r="1"/><circle cx="37" cy="13" r="1"/><path d="m43.392 27.8c-1.553-1.165-2.282-2.4-2.166-3.685a4.219 4.219 0 0 1 2.319-3.01c.356-.185.914-.635.967-.953.024-.147-.118-.331-.242-.46-.439-.459-1.254-.751-3.669 1.1l-.051.037a4.751 4.751 0 0 0 -1.95 3.259c-.09 1.614.933 3.348 3.039 5.153 5 4.286 2.492 8.245.993 10.611-.888 1.4-1.27 2.1-.931 2.447.5.507.8.446.919.423.362-.073 1.681-.657 3.438-5.091 1.704-4.286.93-7.131-2.666-9.831z"/><path d="m32 4a28 28 0 1 0 28 28 28.032 28.032 0 0 0 -28-28zm0 54a26 26 0 1 1 26-26 26.03 26.03 0 0 1 -26 26z"/><path d="m32 8a24 24 0 1 0 24 24 24.028 24.028 0 0 0 -24-24zm5 2a3 3 0 1 1 -3 3 3 3 0 0 1 3-3zm-11 5h2v2h-2zm-12 25a3 3 0 1 1 3-3 3 3 0 0 1 -3 3zm11 8h-2v-2h2zm1-9.631c-1.544 3.893-3.147 5.958-4.9 6.314a2.7 2.7 0 0 1 -.531.053 2.646 2.646 0 0 1 -.488-.047l-1.244 1.866-1.664-1.11 1.173-1.759c-1.468-1.511-.328-3.314.68-4.905 1.584-2.5 3.081-4.863-.605-8.022-2.615-2.24-3.871-4.531-3.733-6.808a6.7 6.7 0 0 1 2.8-4.76c1.044-.8 4.137-3.148 6.31-.883a2.477 2.477 0 0 1 .769 2.181 3.9 3.9 0 0 1 -2.038 2.4c-.3.154-1.172.743-1.228 1.407-.045.527.443 1.2 1.375 1.9 4.278 3.22 5.336 7.086 3.324 12.173zm3 14.631h-2v-2h2zm2.5-8.264a2.687 2.687 0 0 1 -.426-.041l-1.24 1.86-1.664-1.11 1.147-1.72c-.009-.01-.019-.014-.028-.024-1.49-1.514-.344-3.324.668-4.92 1.584-2.5 3.08-4.863-.606-8.022-2.614-2.24-3.87-4.531-3.732-6.808a6.7 6.7 0 0 1 2.795-4.76c1.046-.8 4.138-3.148 6.31-.883a2.472 2.472 0 0 1 .769 2.181 3.894 3.894 0 0 1 -2.038 2.4c-.3.154-1.171.743-1.228 1.407-.044.527.443 1.2 1.375 1.9 4.288 3.216 5.346 7.083 3.33 12.169-1.544 3.893-3.147 5.958-4.9 6.313a2.62 2.62 0 0 1 -.532.058zm4.5 7.264a3 3 0 1 1 3-3 3 3 0 0 1 -3 3zm9-2h-2v-2h2zm2.922-11.631c-1.544 3.893-3.147 5.958-4.9 6.313a2.62 2.62 0 0 1 -.531.054 2.728 2.728 0 0 1 -.419-.04l-1.239 1.859-1.664-1.11 1.144-1.716c-.011-.011-.022-.017-.033-.028-1.489-1.514-.343-3.324.668-4.92 1.584-2.5 3.08-4.863-.606-8.022-2.614-2.24-3.87-4.531-3.732-6.808a6.7 6.7 0 0 1 2.8-4.76c1.046-.8 4.139-3.148 6.31-.883a2.472 2.472 0 0 1 .769 2.181 3.894 3.894 0 0 1 -2.038 2.4c-.3.154-1.171.743-1.228 1.407-.044.527.444 1.2 1.375 1.9 4.282 3.22 5.34 7.087 3.324 12.173zm2.078-13.369h-2v-2h2z"/></g></svg>