<svg id="Layer_1" enable-background="new 0 0 256 256" height="512" viewBox="0 0 256 256" width="512" xmlns="http://www.w3.org/2000/svg"><path d="m114.175 98.271h20.5v76.5h-20.5z" fill="#a4c9ff"/><path d="m134.675 176.771h-20.5c-1.104 0-2-.896-2-2v-76.5c0-1.104.896-2 2-2h20.5c1.104 0 2 .896 2 2v76.5c0 1.104-.896 2-2 2zm-18.5-4h16.5v-72.5h-16.5z" fill="#3762cc"/><path d="m188.783 243.271h-128.716c-4.496 0-8.142-3.645-8.142-8.142v-52.217c0-4.496 3.645-8.142 8.142-8.142h128.717c4.496 0 8.142 3.645 8.142 8.142v52.217c-.001 4.497-3.646 8.142-8.143 8.142z" fill="#6bdddd"/><path d="m178.669 183.021h-34.025v52h34.025c3.314 0 6-2.686 6-6v-40c0-3.314-2.687-6-6-6z" fill="#f9a7a7"/><path d="m104.451 183.021h40.193v52h-40.193z" fill="#ffea92"/><path d="m70.425 235.021h34.025v-52h-34.025c-3.314 0-6 2.686-6 6v40c0 3.314 2.686 6 6 6z" fill="#4671c6"/><path d="m188.783 245.271h-128.717c-5.592 0-10.142-4.55-10.142-10.142v-52.217c0-5.592 4.549-10.142 10.142-10.142h128.717c5.592 0 10.142 4.55 10.142 10.142v52.217c0 5.592-4.55 10.142-10.142 10.142zm-128.717-68.5c-3.387 0-6.142 2.755-6.142 6.142v52.217c0 3.387 2.755 6.142 6.142 6.142h128.717c3.387 0 6.142-2.755 6.142-6.142v-52.217c0-3.387-2.755-6.142-6.142-6.142z" fill="#3762cc"/><path d="m174.029 142.279h49.56v8.285h-49.56z" fill="#4671c6" transform="matrix(-1 0 0 -1 397.617 292.843)"/><ellipse cx="240.627" cy="146.824" fill="#a4c9ff" rx="7.167" ry="20"/><ellipse cx="157.038" cy="146.824" fill="#a4c9ff" rx="7.167" ry="20"/><path d="m233.461 146.824c0-11.046 3.209-20 7.167-20-9.675 0-17.519 8.954-17.519 20s7.843 20 17.519 20c-3.959 0-7.167-8.954-7.167-20z" fill="#4671c6"/><path d="m157.038 126.824c3.958 0 7.167 8.954 7.167 20s-3.209 20-7.167 20c9.675 0 17.519-8.954 17.519-20-.001-11.045-7.844-20-17.519-20z" fill="#4671c6"/><path d="m223.588 152.564h-49.56c-1.104 0-2-.896-2-2v-8.285c0-1.104.896-2 2-2h49.56c1.104 0 2 .896 2 2v8.285c0 1.105-.895 2-2 2zm-47.559-4h45.56v-4.285h-45.56z" fill="#3762cc"/><path d="m240.627 168.824c-6.018 0-9.167-11.067-9.167-22s3.149-22 9.167-22 9.167 11.067 9.167 22-3.148 22-9.167 22zm0-40c-1.822 0-5.167 6.834-5.167 18s3.345 18 5.167 18c1.821 0 5.167-6.834 5.167-18s-3.345-18-5.167-18z" fill="#3762cc"/><path d="m157.038 168.824c-6.018 0-9.167-11.067-9.167-22s3.148-22 9.167-22 9.167 11.067 9.167 22-3.149 22-9.167 22zm0-40c-1.821 0-5.167 6.834-5.167 18s3.345 18 5.167 18 5.167-6.834 5.167-18-3.346-18-5.167-18z" fill="#3762cc"/><path d="m240.627 168.824c-10.763 0-19.519-9.869-19.519-22s8.756-22 19.519-22c1.104 0 2 .896 2 2s-.896 2-2 2c-1.822 0-5.167 6.834-5.167 18s3.345 18 5.167 18c1.104 0 2 .896 2 2s-.895 2-2 2zm-6.284-38.457c-5.435 2.803-9.234 9.125-9.234 16.457s3.799 13.654 9.234 16.457c-1.905-4.237-2.882-10.368-2.882-16.457s.977-12.22 2.882-16.457z" fill="#3762cc"/><path d="m157.038 168.824c-1.104 0-2-.896-2-2s.896-2 2-2c1.822 0 5.167-6.834 5.167-18s-3.345-18-5.167-18c-1.104 0-2-.896-2-2s.896-2 2-2c10.763 0 19.519 9.869 19.519 22s-8.757 22-19.519 22zm6.284-38.457c1.905 4.237 2.882 10.368 2.882 16.457s-.977 12.22-2.882 16.457c5.435-2.803 9.234-9.125 9.234-16.457s-3.799-13.654-9.234-16.457z" fill="#3762cc"/><path d="m174.029 27.228h49.56v8.285h-49.56z" fill="#4671c6"/><path d="m223.588 22.358v18.024c0 1.026 1.043 1.724 1.991 1.332l21.803-9.012c1.187-.491 1.187-2.172 0-2.663l-21.803-9.012c-.948-.392-1.991.305-1.991 1.331z" fill="#6bdddd"/><path d="m158.481 12.729h-16.872c-.796 0-1.441.645-1.441 1.441v10.043c0 .409.174.799.478 1.072l5.549 4.98c.638.573.638 1.572 0 2.145l-5.549 4.98c-.305.273-.478.663-.478 1.072v10.043c0 .796.645 1.441 1.441 1.441h16.872c1.641 0 3.205-.7 4.298-1.924l11.249-12.594v-1.52-5.141-1.52l-11.249-12.594c-1.093-1.224-2.657-1.924-4.298-1.924z" fill="#6bdddd"/><path d="m223.588 37.513h-49.56c-1.104 0-2-.896-2-2v-8.285c0-1.104.896-2 2-2h49.56c1.104 0 2 .896 2 2v8.285c0 1.104-.895 2-2 2zm-47.559-4h45.56v-4.285h-45.56z" fill="#3762cc"/><path d="m225.028 43.824c-.67 0-1.335-.196-1.911-.581-.957-.64-1.529-1.709-1.529-2.86v-18.025c0-1.15.571-2.22 1.528-2.86.956-.64 2.163-.761 3.227-.32l21.805 9.013c1.291.533 2.126 1.781 2.126 3.179s-.834 2.646-2.126 3.181l-21.804 9.013c-.425.173-.871.26-1.316.26zm.56-20.63v16.352l19.781-8.176z" fill="#3762cc"/><path d="m158.481 51.945h-16.872c-1.897 0-3.441-1.544-3.441-3.441v-10.043c0-.976.417-1.909 1.143-2.561l5.085-4.563-5.085-4.563c-.726-.651-1.143-1.585-1.143-2.561v-10.043c0-1.897 1.543-3.44 3.441-3.44h16.872c2.209 0 4.32.944 5.791 2.592l11.249 12.593c.327.366.508.841.508 1.332v8.182c0 .491-.181.966-.508 1.332l-11.25 12.593c-1.471 1.646-3.581 2.591-5.79 2.591zm-16.313-4h16.313c1.07 0 2.093-.458 2.806-1.257l10.742-12.024v-6.654l-10.741-12.024c-.713-.798-1.736-1.256-2.807-1.256h-16.313v9.233l5.363 4.813c.726.651 1.142 1.585 1.142 2.561s-.416 1.909-1.142 2.561l-5.363 4.813z" fill="#3762cc"/><path d="m74.274 77.771h108v20.5h-108z" fill="#a4c9ff"/><path d="m66.638 127.167h-51.276c-3.238 0-5.862-2.625-5.862-5.862v-.276c0-3.238 2.625-5.862 5.862-5.862h51.276c3.238 0 5.862 2.625 5.862 5.862v.276c0 3.237-2.625 5.862-5.862 5.862z" fill="#e0ebfc"/><path d="m60.911 139.167h-39.822c-3.238 0-5.862-2.625-5.862-5.862v-.276c0-3.238 2.625-5.862 5.862-5.862h39.821c3.238 0 5.862 2.625 5.862 5.862v.276c.001 3.237-2.624 5.862-5.861 5.862z" fill="#e0ebfc"/><path d="m96.315 212.32c-.023-.236-.057-.469-.092-.701h.003c-1.381-11.472-9.706-17.752-11.838-19.185-.303-.204-.691-.204-.994 0-2.132 1.433-10.457 7.713-11.838 19.185h.017c-.099.655-.168 1.32-.168 2.004 0 7.167 5.59 12.977 12.486 12.977s12.486-5.81 12.486-12.977c0-.44-.021-.874-.062-1.303z" fill="#a4c9ff"/><g fill="#ffea92"><circle cx="168.253" cy="204.722" r="6.454"/><path d="m168.253 197.153c-.335 0-.606-.271-.606-.606v-3.334c0-.335.271-.606.606-.606.335 0 .606.271.606.606v3.334c0 .335-.271.606-.606.606z"/><path d="m168.253 216.837c-.335 0-.606-.271-.606-.606v-3.334c0-.335.271-.606.606-.606.335 0 .606.271.606.606v3.334c0 .335-.271.606-.606.606z"/><path d="m175.822 204.722c0-.335.271-.606.606-.606h3.334c.335 0 .606.271.606.606 0 .335-.271.606-.606.606h-3.334c-.335 0-.606-.271-.606-.606z"/><path d="m156.138 204.722c0-.335.271-.606.606-.606h3.334c.335 0 .606.271.606.606 0 .335-.271.606-.606.606h-3.334c-.335 0-.606-.271-.606-.606z"/><path d="m173.605 210.074c.237-.237.621-.237.857 0l2.357 2.357c.237.237.237.621 0 .857-.237.237-.621.237-.857 0l-2.357-2.357c-.237-.236-.237-.62 0-.857z"/><path d="m159.686 196.155c.237-.237.621-.237.857 0l2.357 2.357c.237.237.237.621 0 .857-.237.237-.621.237-.857 0l-2.357-2.357c-.237-.236-.237-.62 0-.857z"/><path d="m162.901 210.074c.237.237.237.621 0 .857l-2.357 2.357c-.237.237-.621.237-.857 0-.237-.237-.237-.621 0-.857l2.357-2.357c.236-.237.62-.237.857 0z"/><path d="m176.82 196.155c.237.237.237.621 0 .857l-2.357 2.357c-.237.237-.621.237-.857 0-.237-.237-.237-.621 0-.857l2.357-2.357c.236-.236.62-.236.857 0z"/></g><path d="m169.804 209.019h-.171c-.134-2.7-2.365-4.848-5.099-4.848-.589 0-1.154.101-1.68.284-.652-2.265-2.738-3.922-5.212-3.922-2.996 0-5.424 2.429-5.424 5.424 0 .212.014.422.037.628-2.973.388-5.27 2.93-5.27 6.009 0 3.348 2.714 6.062 6.062 6.062h16.756c2.661 0 4.819-2.157 4.819-4.819.001-2.661-2.157-4.818-4.818-4.818z" fill="#e0ebfc"/><path d="m128.736 215.324v-23.171c0-2.314-1.875-4.189-4.189-4.189s-4.189 1.875-4.189 4.189v23.171c-2.98 1.525-5.021 4.624-5.021 8.202 0 5.087 4.124 9.21 9.21 9.21 5.087 0 9.21-4.124 9.21-9.21 0-3.578-2.041-6.677-5.021-8.202z" fill="#a4c9ff"/><path d="m127.1 217.844c-.136-.061-.226-.193-.226-.342v-1.887-23.385c0-1.281-1.002-2.381-2.284-2.404-1.305-.024-2.371 1.027-2.371 2.327v23.462 1.887c0 .149-.09.28-.225.341-2.325 1.049-3.897 3.482-3.654 6.243.266 3.02 2.728 5.439 5.752 5.654 3.64.26 6.686-2.629 6.686-6.215 0-2.526-1.512-4.704-3.678-5.681z" fill="#e0ebfc"/><circle cx="124.547" cy="223.526" fill="#a4c9ff" r="6.231"/><path d="m127.1 217.844c-.136-.061-.226-.193-.226-.342v-1.887-12.481h-4.654v12.481 1.887c0 .149-.09.28-.225.341-2.325 1.049-3.897 3.482-3.654 6.243.266 3.02 2.728 5.439 5.752 5.654 3.64.26 6.686-2.629 6.686-6.215-.001-2.526-1.513-4.704-3.679-5.681z" fill="#f9a7a7"/><path d="m129.431 195.567h-3.767c-.617 0-1.117-.5-1.117-1.117 0-.617.5-1.117 1.117-1.117h3.767c.617 0 1.117.5 1.117 1.117 0 .617-.5 1.117-1.117 1.117z" fill="#f9cfcf"/><path d="m129.431 201.152h-3.767c-.617 0-1.117-.5-1.117-1.117 0-.617.5-1.117 1.117-1.117h3.767c.617 0 1.117.5 1.117 1.117 0 .617-.5 1.117-1.117 1.117z" fill="#f9cfcf"/><path d="m129.431 207.11h-3.767c-.617 0-1.117-.5-1.117-1.117 0-.617.5-1.117 1.117-1.117h3.767c.617 0 1.117.5 1.117 1.117 0 .617-.5 1.117-1.117 1.117z" fill="#f9cfcf"/><path d="m129.431 213.068h-3.767c-.617 0-1.117-.5-1.117-1.117 0-.617.5-1.117 1.117-1.117h3.767c.617 0 1.117.5 1.117 1.117 0 .617-.5 1.117-1.117 1.117z" fill="#f9cfcf"/><path d="m198.774 41.521c-9.113 0-16.5 7.387-16.5 16.5v7.125 15.375 16.75 11.628 10.872c0 9.113 7.387 16.5 16.5 16.5s16.5-7.387 16.5-16.5v-10.872-11.628-16.75-15.375-7.125c0-9.113-7.388-16.5-16.5-16.5z" fill="#e0ebfc"/><path d="m182.274 80.521v16.75 1h33v-1-16.75-2.75h-33z" fill="#f9a7a7"/><path d="m66.638 129.167h-51.276c-4.335 0-7.862-3.527-7.862-7.862v-.276c0-4.335 3.527-7.861 7.862-7.861h51.276c4.335 0 7.862 3.526 7.862 7.861v.276c0 4.335-3.527 7.862-7.862 7.862zm-51.276-12c-2.129 0-3.862 1.732-3.862 3.861v.276c0 2.13 1.732 3.862 3.862 3.862h51.276c2.129 0 3.862-1.732 3.862-3.862v-.276c0-2.129-1.732-3.861-3.862-3.861z" fill="#3762cc"/><path d="m60.911 141.167h-39.822c-4.335 0-7.862-3.527-7.862-7.862v-.276c0-4.335 3.527-7.861 7.862-7.861h39.821c4.335 0 7.862 3.526 7.862 7.861v.276c.001 4.335-3.526 7.862-7.861 7.862zm-39.822-12c-2.13 0-3.862 1.732-3.862 3.861v.276c0 2.13 1.732 3.862 3.862 3.862h39.821c2.13 0 3.862-1.732 3.862-3.862v-.276c0-2.129-1.732-3.861-3.862-3.861z" fill="#3762cc"/><path d="m182.274 100.271h-108c-1.104 0-2-.896-2-2v-20.5c0-1.104.896-2 2-2h108c1.104 0 2 .896 2 2v20.5c0 1.104-.896 2-2 2zm-106-4h104v-16.5h-104z" fill="#3762cc"/><path d="m198.774 136.271c-1.34 0-2.635-.177-3.882-.479-.019.159-.048.315-.048.479v14.293c0 2.209 1.791 4 4 4s4-1.791 4-4v-14.293c0-.176-.03-.343-.052-.513-1.289.323-2.63.513-4.018.513z" fill="#f9a7a7"/><path d="m198.774 41.521c1.364 0 2.682.184 3.95.496.021-.164.05-.326.05-.496v-14.293c0-2.209-1.791-4-4-4s-4 1.791-4 4v14.293c0 .17.029.332.05.496 1.268-.312 2.586-.496 3.95-.496z" fill="#f9a7a7"/><path d="m198.774 138.271c-10.201 0-18.5-8.299-18.5-18.5v-61.75c0-10.201 8.299-18.5 18.5-18.5s18.5 8.299 18.5 18.5v61.75c0 10.201-8.299 18.5-18.5 18.5zm0-94.75c-7.995 0-14.5 6.505-14.5 14.5v61.75c0 7.995 6.505 14.5 14.5 14.5s14.5-6.505 14.5-14.5v-61.75c0-7.996-6.505-14.5-14.5-14.5z" fill="#3762cc"/><path d="m198.843 156.563c-3.309 0-6-2.691-6-6v-14.293c0-.216.022-.425.052-.635.069-.565.383-1.119.852-1.444.469-.324 1.06-.475 1.615-.344 2.36.571 4.592.561 6.943-.029.554-.141 1.141-.034 1.613.287s.784.829.857 1.396c.043.312.068.536.068.77v14.293c0 3.308-2.691 5.999-6 5.999zm-2-18.4v12.4c0 1.103.897 2 2 2s2-.897 2-2v-12.416c-1.345.159-2.655.164-4 .016z" fill="#3762cc"/><path d="m194.824 44.017c-.401 0-.797-.121-1.134-.353-.47-.323-.78-.833-.851-1.399-.042-.304-.065-.521-.065-.744v-14.293c0-3.309 2.691-6 6-6s6 2.691 6 6v14.293c0 .224-.024.439-.054.655-.071.566-.386 1.12-.857 1.443-.47.324-1.062.477-1.617.34-2.367-.582-4.579-.582-6.945 0-.157.038-.318.058-.477.058zm3.95-4.496c.658 0 1.326.039 2 .116v-12.409c0-1.103-.897-2-2-2s-2 .897-2 2v12.409c.674-.077 1.342-.116 2-.116z" fill="#3762cc"/><path d="m70.274 115.146h-58.548c-2.209 0-4-1.791-4-4v-52c0-2.209 1.791-4 4-4h58.548c2.209 0 4 1.791 4 4v52c0 2.209-1.791 4-4 4z" fill="#e0ebfc"/><path d="m70.274 117.146h-58.548c-3.309 0-6-2.691-6-6v-52c0-3.309 2.691-6 6-6h58.548c3.309 0 6 2.691 6 6v52c0 3.308-2.691 6-6 6zm-58.548-60c-1.103 0-2 .897-2 2v52c0 1.103.897 2 2 2h58.548c1.103 0 2-.897 2-2v-52c0-1.103-.897-2-2-2z" fill="#3762cc"/></svg>