<svg id="Layer_3" enable-background="new 0 0 64 64" height="512" viewBox="0 0 64 64" width="512" xmlns="http://www.w3.org/2000/svg"><path d="m31 31v-3.899c-1.956.399-3.5 1.943-3.899 3.899z"/><path d="m33 31h3.899c-.399-1.956-1.943-3.5-3.899-3.899z"/><path d="m34.414 33 1.753 1.753c.348-.524.602-1.116.732-1.753z"/><path d="m31 19.051c-6.37.488-11.461 5.579-11.949 11.949h6.029c.441-3.059 2.861-5.479 5.92-5.92z"/><circle cx="54" cy="17" r="2"/><path d="m49.641 12.773c-1.058 1.058-1.641 2.465-1.641 3.961 0 1.239.419 2.461 1.18 3.439l4.82 6.198 4.82-6.197c.761-.979 1.18-2.2 1.18-3.439 0-1.496-.583-2.903-1.641-3.961l-.133-.133c-1.057-1.058-2.464-1.641-3.96-1.641h-.531c-1.496 0-2.903.583-3.961 1.641zm4.359.227c2.206 0 4 1.794 4 4s-1.794 4-4 4-4-1.794-4-4 1.794-4 4-4z"/><path d="m27.101 33c.465 2.279 2.484 4 4.899 4 1.017 0 1.962-.309 2.753-.833l-3.167-3.167z"/><path d="m33 7.044v18.036c3.059.441 5.479 2.861 5.92 5.92h4.222c.447-1.721 1.999-3 3.858-3s3.411 1.279 3.858 3h6.105c-.059-1.505-.24-2.995-.565-4.454l-1.609 2.068c-.189.243-.48.386-.789.386s-.6-.143-.789-.386l-5.609-7.212c-1.034-1.328-1.602-2.986-1.602-4.668 0-1.598.497-3.118 1.406-4.394-4.123-3.231-9.164-5.085-14.406-5.296z"/><circle cx="47" cy="32" r="2"/><path d="m32 45c3.141 0 6.099-1.109 8.453-3.133l-4.269-4.269c-1.169.876-2.614 1.402-4.184 1.402-3.519 0-6.432-2.614-6.92-6h-6.029c.514 6.701 6.119 12 12.949 12z"/><circle cx="11" cy="9" r="2"/><path d="m11 18.371 4.82-6.197c.761-.979 1.18-2.2 1.18-3.439 0-1.496-.583-2.903-1.641-3.961l-.133-.133c-1.057-1.058-2.464-1.641-3.96-1.641h-.531c-1.497 0-2.904.583-3.962 1.641l-.132.132c-1.058 1.058-1.641 2.465-1.641 3.961 0 1.239.419 2.461 1.18 3.439zm0-13.371c2.206 0 4 1.794 4 4s-1.794 4-4 4-4-1.794-4-4 1.794-4 4-4z"/><path d="m59.446 22.627-1.502 1.931c.691 2.411 1.056 4.909 1.056 7.442 0 14.888-12.112 27-27 27s-27-12.112-27-27c0-4.74 1.253-9.372 3.603-13.453l-1.316-1.692c-2.798 4.554-4.287 9.754-4.287 15.145 0 15.99 13.01 29 29 29s29-13.01 29-29c0-3.222-.526-6.366-1.554-9.373z"/><path d="m11 21c-.309 0-.6-.143-.789-.386l-.278-.357c-1.763 3.307-2.749 6.977-2.899 10.743h4.016c.512-10.78 9.17-19.438 19.95-19.949v-4.015c-4.387.174-8.621 1.48-12.326 3.82-.268.917-.686 1.788-1.276 2.547l-5.609 7.212c-.189.242-.48.385-.789.385z"/><path d="m32 5c6.096 0 12.003 2.089 16.76 5.863.543-.472 1.142-.858 1.782-1.155-5.203-4.335-11.721-6.708-18.542-6.708-4.678 0-9.289 1.146-13.406 3.295.221.655.352 1.341.387 2.047 3.973-2.191 8.435-3.342 13.019-3.342z"/><path d="m13.051 31h4c.496-7.473 6.476-13.453 13.949-13.949v-4c-9.677.507-17.442 8.272-17.949 17.949z"/><path d="m32 51c4.747 0 9.202-1.74 12.695-4.891l-2.827-2.827c-2.734 2.398-6.192 3.718-9.868 3.718-7.934 0-14.431-6.195-14.949-14h-4c.525 10.011 8.81 18 18.949 18z"/><path d="m7.025 33c.528 13.323 11.525 24 24.975 24 6.534 0 12.487-2.522 16.946-6.64l-2.838-2.838c-3.871 3.528-8.826 5.478-14.108 5.478-11.242 0-20.422-8.887-20.949-20z"/><path d="m56.975 33h-6.117c-.447 1.721-1.999 3-3.858 3s-3.411-1.279-3.858-3h-4.222c-.17 1.183-.636 2.269-1.322 3.184l12.762 12.762c3.906-4.23 6.372-9.806 6.615-15.946z"/></svg>