<?xml version="1.0" encoding="iso-8859-1"?>
<!-- Generator: Adobe Illustrator 16.0.0, SVG Export Plug-In . SVG Version: 6.00 Build 0)  -->
<!DOCTYPE svg PUBLIC "-//W3C//DTD SVG 1.1//EN" "http://www.w3.org/Graphics/SVG/1.1/DTD/svg11.dtd">
<svg version="1.1" id="Capa_1" xmlns="http://www.w3.org/2000/svg" xmlns:xlink="http://www.w3.org/1999/xlink" x="0px" y="0px"
	 width="499.459px" height="499.459px" viewBox="0 0 499.459 499.459" style="enable-background:new 0 0 499.459 499.459;"
	 xml:space="preserve">
<g>
	<path d="M208.921,208.936c-22.921,0-36.271,21.812-36.271,50.969c0,29.365,13.808,50.059,36.49,50.059
		c22.921,0,36.061-21.793,36.061-50.949C245.192,232.087,232.273,208.936,208.921,208.936z"/>
	<path d="M436.203,159.412c-3.901,0-7.708,0.401-11.418,1.081c-19.087-25.8-49.648-42.601-84.207-42.601
		c-12.833,0-25.073,2.419-36.434,6.646c-19.191-21.63-47.124-35.333-78.316-35.333c-32.713,0-61.917,15.003-81.138,38.499
		c-1.645-0.076-3.261-0.249-4.925-0.249C81.893,127.445,34.979,174.368,34.979,232.24c0,6.531,0.679,12.891,1.817,19.097
		C15.089,261.368,0,283.265,0,308.739c0,34.941,28.324,63.266,63.265,63.266c11.332,0,21.946-3.021,31.155-8.242
		c18.962,18.934,45.125,30.639,74.033,30.639c18.819,0,36.443-5.031,51.705-13.713c11.208,17.748,30.935,29.566,53.483,29.566
		c19.564,0,37.055-8.893,48.663-22.844c11.628,4.455,24.203,7,37.399,7c57.872,0,104.786-46.914,104.786-104.787
		c0-3.432-0.191-6.818-0.517-10.154c20.999-10.289,35.486-31.815,35.486-56.783C499.469,187.736,471.145,159.412,436.203,159.412z
		 M207.363,336.892c-44.504,0-70.533-33.592-70.533-76.318c0-44.953,28.697-78.565,72.981-78.565
		c46.053,0,71.202,34.501,71.202,75.877C281.013,307.067,251.188,336.892,207.363,336.892z M350.542,246.182v9.563h-57.375v-7.364
		l11.36-9.859c18.407-16.466,27.598-25.943,27.846-35.783c0-6.885-4.035-12.316-13.761-12.316c-7.248,0-13.55,3.624-17.948,6.99
		l-5.556-14.134c6.34-4.8,16.208-8.683,27.626-8.683c19.058,0,29.577,11.141,29.577,26.45c0,14.133-10.376,25.398-22.549,36.29
		l-7.908,6.493v2.353H350.542z"/>
</g>
<g>
</g>
<g>
</g>
<g>
</g>
<g>
</g>
<g>
</g>
<g>
</g>
<g>
</g>
<g>
</g>
<g>
</g>
<g>
</g>
<g>
</g>
<g>
</g>
<g>
</g>
<g>
</g>
<g>
</g>
</svg>
