<?xml version="1.0" encoding="iso-8859-1"?>
<!-- Generator: Adobe Illustrator 19.0.0, SVG Export Plug-In . SVG Version: 6.00 Build 0)  -->
<svg version="1.1" id="Capa_1" xmlns="http://www.w3.org/2000/svg" xmlns:xlink="http://www.w3.org/1999/xlink" x="0px" y="0px"
	 viewBox="0 0 511.999 511.999" style="enable-background:new 0 0 511.999 511.999;" xml:space="preserve">
<g>
	<g>
		<path d="M415.905,418.519l-32.197-268.967h14.206c8.292,0,15.015-6.723,15.015-15.015s-6.723-15.015-15.015-15.015h-9.576
			C381.036,52.41,324.03,0,255.007,0S128.979,52.41,121.676,119.523h-9.576c-8.292,0-15.015,6.723-15.015,15.015
			c0,8.292,6.723,15.015,15.015,15.015h16.191L96.093,418.519c-2.837,23.702,4.623,47.533,20.466,65.387
			c15.844,17.854,38.621,28.093,62.491,28.093h153.898c23.87,0,46.647-10.239,62.49-28.093
			C411.283,466.054,418.743,442.221,415.905,418.519z M255.007,30.03c52.443,0,95.945,38.984,103.07,89.493h-206.14
			C159.062,69.013,202.564,30.03,255.007,30.03z M372.978,463.975c-10.149,11.436-24.74,17.996-40.03,17.996H179.051
			c-15.29,0-29.881-6.56-40.03-17.996c-10.149-11.437-14.928-26.703-13.11-41.886l32.624-272.537h194.929l32.624,272.536
			C387.906,437.272,383.128,452.538,372.978,463.975z"/>
	</g>
</g>
<g>
	<g>
		<path d="M254.424,174.451c-8.292,0-15.015,6.723-15.015,15.015v243.327c0,8.292,6.723,15.015,15.015,15.015
			s15.015-6.723,15.015-15.015V189.466C269.439,181.174,262.716,174.451,254.424,174.451z"/>
	</g>
</g>
<g>
	<g>
		<path d="M198.773,174.528c-8.25-0.842-15.619,5.167-16.458,13.416L157.609,430.61c-0.84,8.25,5.167,15.62,13.417,16.458
			c0.518,0.053,1.03,0.078,1.539,0.078c7.609,0,14.132-5.763,14.92-13.494l24.706-242.666
			C213.03,182.737,207.023,175.368,198.773,174.528z"/>
	</g>
</g>
<g>
	<g>
		<path d="M355.712,430.642l-27.027-242.837c-0.918-8.241-8.338-14.185-16.583-13.262c-8.241,0.918-14.179,8.342-13.262,16.583
			l27.027,242.837c0.855,7.678,7.355,13.355,14.904,13.355c0.555,0,1.115-0.03,1.68-0.093
			C350.691,446.308,356.629,438.883,355.712,430.642z"/>
	</g>
</g>
<g>
	<g>
		<circle cx="227.506" cy="76.316" r="15.012"/>
	</g>
</g>
<g>
	<g>
		<circle cx="284.562" cy="76.316" r="15.012"/>
	</g>
</g>
<g>
</g>
<g>
</g>
<g>
</g>
<g>
</g>
<g>
</g>
<g>
</g>
<g>
</g>
<g>
</g>
<g>
</g>
<g>
</g>
<g>
</g>
<g>
</g>
<g>
</g>
<g>
</g>
<g>
</g>
</svg>
