<svg height="512" viewBox="0 0 64 64" width="512" xmlns="http://www.w3.org/2000/svg"><g id="Layer_14" data-name="Layer 14"><path d="m61.7 42.7-25.77-39.57a4.69 4.69 0 0 0 -7.86 0l-25.77 39.58a8 8 0 0 0 1.05 10.06 7.58 7.58 0 0 0 5.39 2.23h15.26v3a1 1 0 0 0 1 1h1v4h2v-4h8v4h2v-4h1a1 1 0 0 0 1-1v-3h15.26a7.58 7.58 0 0 0 5.39-2.23 8 8 0 0 0 1.05-10.07zm-23.7 14.3h-12v-2h12zm21.23-5.65a5.63 5.63 0 0 1 -4 1.65h-46.49a5.63 5.63 0 0 1 -4-1.65 6 6 0 0 1 -.74-7.55l25.75-39.58a2.68 2.68 0 0 1 4.5 0l25.75 39.58a6 6 0 0 1 -.79 7.55z"/><path d="m32.84 5.46a1 1 0 0 0 -1.68 0l-25.54 39.3a3.72 3.72 0 0 0 -.62 2.07 3.8 3.8 0 0 0 1.12 2.7 4.94 4.94 0 0 0 3.54 1.47h44.68a4.94 4.94 0 0 0 3.54-1.47 3.8 3.8 0 0 0 1.12-2.7 3.72 3.72 0 0 0 -.62-2.07zm23.63 42.66a3 3 0 0 1 -2.13.88h-44.68a3 3 0 0 1 -2.13-.88 1.83 1.83 0 0 1 -.53-1.29 1.79 1.79 0 0 1 .29-1l24.71-38 24.71 38a1.79 1.79 0 0 1 .29 1 1.83 1.83 0 0 1 -.53 1.29z"/><path d="m26 33.7v2.3a1 1 0 0 0 1 1h10a1 1 0 0 0 1-1v-2.3a9 9 0 1 0 -12 0zm6-13.7a7 7 0 0 1 4.37 12.46 1 1 0 0 0 -.37.78v1.76h-1v-3h-2v3h-2v-3h-2v3h-1v-1.76a1 1 0 0 0 -.37-.78 7 7 0 0 1 4.37-12.46z"/><path d="m35 29a3 3 0 1 0 -3-3 3 3 0 0 0 3 3zm0-4a1 1 0 1 1 -1 1 1 1 0 0 1 1-1z"/><path d="m32 26a3 3 0 1 0 -3 3 3 3 0 0 0 3-3zm-4 0a1 1 0 1 1 1 1 1 1 0 0 1 -1-1z"/><path d="m46.74 37.03-14.74 3.94-14.74-3.94-.52 1.94 11.38 3.03-11.38 3.03.52 1.94 14.74-3.94 14.74 3.94.52-1.94-11.38-3.03 11.38-3.03z"/></g></svg>